<svg xmlns="http://www.w3.org/2000/svg" version="1.1" xmlns:xlink="http://www.w3.org/1999/xlink" xmlns:svgjs="http://svgjs.dev/svgjs" viewBox="0 0 8.703758992279234 2.1031989235422213"><g transform="matrix(1,0,0,1,0.338379091757381,0.3623198317848403)"><g><path d=" M 0.9345 0.05249999999999988 Q 0.9345 0.06149999999999989 0.9315 0.06149999999999989 Q 0.882 0.06149999999999989 0.8190000000000001 0.11324999999999985 Q 0.756 0.1649999999999998 0.7065 0.24599999999999989 L 0.5355 0.5234999999999999 L 0.5355 0.8594999999999999 Q 0.5355 0.9059999999999999 0.5437500000000001 0.9269999999999998 Q 0.552 0.9479999999999998 0.57525 0.9554999999999999 Q 0.5985 0.9629999999999999 0.6495 0.9629999999999999 Q 0.654 0.9629999999999999 0.654 0.9719999999999999 Q 0.654 0.9809999999999999 0.6495 0.9809999999999999 Q 0.6 0.9809999999999999 0.5730000000000001 0.9794999999999999 L 0.4635 0.9779999999999999 L 0.3555 0.9794999999999999 Q 0.3255 0.9809999999999999 0.276 0.9809999999999999 Q 0.273 0.9809999999999999 0.273 0.9719999999999999 Q 0.273 0.9629999999999999 0.276 0.9629999999999999 Q 0.327 0.9629999999999999 0.35025 0.9554999999999999 Q 0.3735 0.9479999999999998 0.3825 0.9262499999999999 Q 0.3915 0.9044999999999999 0.3915 0.8594999999999999 L 0.3915 0.5504999999999999 L 0.1635 0.2024999999999999 Q 0.1125 0.12299999999999989 0.07575 0.09224999999999983 Q 0.039 0.06149999999999989 0.0045000000000000005 0.06149999999999989 Q 0 0.06149999999999989 0 0.05249999999999988 Q 0 0.04349999999999987 0.0045000000000000005 0.04349999999999987 L 0.054 0.04499999999999982 Q 0.08700000000000001 0.04799999999999982 0.10200000000000001 0.04799999999999982 Q 0.153 0.04799999999999982 0.246 0.04499999999999982 L 0.339 0.04349999999999987 Q 0.342 0.04349999999999987 0.342 0.05249999999999988 Q 0.342 0.06149999999999989 0.339 0.06149999999999989 Q 0.2775 0.06149999999999989 0.2775 0.10349999999999981 Q 0.2775 0.12449999999999983 0.2955 0.15149999999999986 L 0.513 0.4859999999999999 L 0.666 0.23549999999999982 Q 0.7035 0.17399999999999982 0.7035 0.12749999999999984 Q 0.7035 0.06149999999999989 0.621 0.06149999999999989 Q 0.618 0.06149999999999989 0.618 0.05249999999999988 Q 0.618 0.04349999999999987 0.621 0.04349999999999987 L 0.6990000000000001 0.04499999999999982 Q 0.762 0.04799999999999982 0.8145 0.04799999999999982 Q 0.84 0.04799999999999982 0.876 0.04499999999999982 L 0.9315 0.04349999999999987 Q 0.9345 0.04349999999999987 0.9345 0.05249999999999988 Z M 1.343880615234375 0.8864999999999998 Q 1.346880615234375 0.8864999999999998 1.350630615234375 0.8924999999999998 Q 1.354380615234375 0.8984999999999999 1.351380615234375 0.9014999999999999 Q 1.297380615234375 0.9524999999999999 1.241880615234375 0.9757499999999999 Q 1.186380615234375 0.9989999999999999 1.120380615234375 0.9989999999999999 Q 1.027380615234375 0.9989999999999999 0.960630615234375 0.9592499999999998 Q 0.893880615234375 0.9194999999999999 0.858630615234375 0.8527499999999999 Q 0.823380615234375 0.7859999999999998 0.823380615234375 0.7094999999999998 Q 0.823380615234375 0.6209999999999999 0.867630615234375 0.5474999999999999 Q 0.911880615234375 0.47399999999999987 0.9891306152343751 0.4312499999999999 Q 1.066380615234375 0.38849999999999985 1.159380615234375 0.38849999999999985 Q 1.247880615234375 0.38849999999999985 1.295880615234375 0.4282499999999999 Q 1.343880615234375 0.46799999999999986 1.343880615234375 0.5369999999999999 Q 1.343880615234375 0.5774999999999999 1.327380615234375 0.5774999999999999 L 1.244880615234375 0.5774999999999999 L 0.962880615234375 0.5804999999999998 Q 0.958380615234375 0.6119999999999999 0.958380615234375 0.6479999999999999 Q 0.958380615234375 0.7784999999999999 1.019130615234375 0.8557499999999999 Q 1.079880615234375 0.9329999999999998 1.187880615234375 0.9329999999999998 Q 1.226880615234375 0.9329999999999998 1.267380615234375 0.9217499999999998 Q 1.307880615234375 0.9104999999999999 1.340880615234375 0.8879999999999999 L 1.343880615234375 0.8864999999999998 Z M 1.0198806152343751 0.4544999999999999 Q 0.983880615234375 0.4904999999999999 0.968880615234375 0.5534999999999999 L 1.202880615234375 0.5489999999999999 Q 1.199880615234375 0.4874999999999999 1.175880615234375 0.45299999999999985 Q 1.151880615234375 0.41849999999999987 1.105380615234375 0.41849999999999987 Q 1.0558806152343752 0.41849999999999987 1.0198806152343751 0.4544999999999999 Z M 2.17184765625 0.9719999999999999 Q 2.17184765625 0.9809999999999999 2.1673476562500005 0.9809999999999999 Q 2.1298476562500004 0.9809999999999999 2.10884765625 0.9794999999999999 L 2.0218476562500003 0.9779999999999999 L 1.9363476562500002 0.9794999999999999 Q 1.9138476562500002 0.9809999999999999 1.8763476562500003 0.9809999999999999 Q 1.8718476562500004 0.9809999999999999 1.8718476562500004 0.9719999999999999 Q 1.8718476562500004 0.9629999999999999 1.8763476562500003 0.9629999999999999 Q 1.9273476562500003 0.9629999999999999 1.9438476562500002 0.9419999999999998 Q 1.9603476562500002 0.9209999999999998 1.9603476562500002 0.8594999999999999 L 1.9603476562500002 0.6344999999999998 Q 1.9603476562500002 0.5504999999999999 1.9295976562500003 0.5107499999999998 Q 1.8988476562500003 0.47099999999999986 1.8328476562500002 0.47099999999999986 Q 1.7938476562500003 0.47099999999999986 1.7533476562500003 0.4889999999999999 Q 1.7128476562500001 0.5069999999999999 1.6798476562500002 0.5369999999999999 L 1.6798476562500002 0.8594999999999999 Q 1.6798476562500002 0.9209999999999998 1.6963476562500004 0.9419999999999998 Q 1.7128476562500001 0.9629999999999999 1.7638476562500003 0.9629999999999999 Q 1.7683476562500002 0.9629999999999999 1.7683476562500002 0.9719999999999999 Q 1.7683476562500002 0.9809999999999999 1.7638476562500003 0.9809999999999999 Q 1.7263476562500002 0.9809999999999999 1.7053476562500003 0.9794999999999999 L 1.6183476562500003 0.9779999999999999 L 1.5313476562500004 0.9794999999999999 Q 1.5103476562500002 0.9809999999999999 1.4728476562500004 0.9809999999999999 Q 1.4683476562500002 0.9809999999999999 1.4683476562500002 0.9719999999999999 Q 1.4683476562500002 0.9629999999999999 1.4728476562500004 0.9629999999999999 Q 1.5238476562500003 0.9629999999999999 1.5403476562500003 0.9419999999999998 Q 1.5568476562500002 0.9209999999999998 1.5568476562500002 0.8594999999999999 L 1.5568476562500002 0.5729999999999998 Q 1.5568476562500002 0.5249999999999999 1.5455976562500002 0.5024999999999998 Q 1.5343476562500002 0.47999999999999987 1.5088476562500002 0.47999999999999987 Q 1.4863476562500002 0.47999999999999987 1.4338476562500002 0.5024999999999998 L 1.4323476562500002 0.5024999999999998 Q 1.4263476562500002 0.5024999999999998 1.4233476562500003 0.4949999999999999 Q 1.4203476562500001 0.4874999999999999 1.4248476562500003 0.4859999999999999 L 1.6213476562500002 0.3899999999999999 Q 1.6303476562500003 0.3869999999999999 1.6318476562500002 0.3869999999999999 Q 1.6468476562500003 0.3869999999999999 1.6625976562500002 0.42074999999999985 Q 1.6783476562500002 0.4544999999999999 1.6798476562500002 0.5084999999999998 Q 1.7848476562500002 0.3839999999999999 1.9078476562500002 0.3839999999999999 Q 1.9903476562500002 0.3839999999999999 2.0368476562500004 0.4342499999999999 Q 2.0833476562500004 0.4844999999999999 2.0833476562500004 0.5699999999999998 L 2.0833476562500004 0.8594999999999999 Q 2.0833476562500004 0.9209999999999998 2.09984765625 0.9419999999999998 Q 2.1163476562500003 0.9629999999999999 2.1673476562500005 0.9629999999999999 Q 2.17184765625 0.9629999999999999 2.17184765625 0.9719999999999999 Z M 2.2894548339843754 0.13124999999999987 Q 2.2302048339843754 0.1874999999999999 2.1987048339843756 0.3014999999999999 Q 2.1987048339843756 0.3044999999999999 2.1904548339843752 0.3044999999999999 Q 2.1822048339843754 0.3044999999999999 2.1822048339843754 0.2999999999999998 Q 2.1882048339843756 0.24149999999999983 2.1957048339843754 0.14924999999999988 Q 2.2032048339843753 0.05699999999999983 2.2032048339843753 0.010499999999999843 Q 2.2032048339843753 0.0029999999999998916 2.2114548339843756 0.0029999999999998916 Q 2.2197048339843755 0.0029999999999998916 2.2197048339843755 0.010499999999999843 Q 2.2197048339843755 0.04349999999999987 2.3037048339843755 0.04349999999999987 Q 2.4327048339843755 0.04799999999999982 2.6052048339843754 0.04799999999999982 Q 2.693704833984375 0.04799999999999982 2.7927048339843754 0.04499999999999982 L 2.8947048339843753 0.04349999999999987 Q 2.951704833984375 0.04349999999999987 2.9779548339843753 0.03599999999999981 Q 3.0042048339843754 0.02849999999999986 3.0117048339843753 0.005999999999999894 Q 3.0132048339843753 -1.1102230246251565e-16 3.020704833984375 -1.1102230246251565e-16 Q 3.0282048339843755 -1.1102230246251565e-16 3.0282048339843755 0.005999999999999894 Q 3.0237048339843753 0.05249999999999988 3.0192048339843756 0.1469999999999999 Q 3.0147048339843754 0.24149999999999983 3.0147048339843754 0.2999999999999998 Q 3.0147048339843754 0.3044999999999999 3.0064548339843755 0.3044999999999999 Q 2.998204833984375 0.3044999999999999 2.996704833984375 0.2999999999999998 Q 2.9817048339843755 0.1844999999999999 2.926204833984375 0.1297499999999998 Q 2.8707048339843753 0.07499999999999984 2.7762048339843752 0.07499999999999984 Q 2.7342048339843754 0.07499999999999984 2.7139548339843755 0.0824999999999999 Q 2.693704833984375 0.08999999999999986 2.6869548339843754 0.1087499999999999 Q 2.6802048339843756 0.12749999999999984 2.6802048339843756 0.16799999999999982 L 2.6802048339843756 0.8594999999999999 Q 2.6802048339843756 0.9059999999999999 2.6892048339843755 0.9269999999999998 Q 2.6982048339843754 0.9479999999999998 2.7252048339843755 0.9554999999999999 Q 2.7522048339843757 0.9629999999999999 2.810704833984375 0.9629999999999999 Q 2.8152048339843754 0.9629999999999999 2.8152048339843754 0.9719999999999999 Q 2.8152048339843754 0.9809999999999999 2.810704833984375 0.9809999999999999 Q 2.7582048339843754 0.9809999999999999 2.7282048339843756 0.9794999999999999 L 2.6052048339843754 0.9779999999999999 L 2.4882048339843754 0.9794999999999999 Q 2.4567048339843756 0.9809999999999999 2.4012048339843752 0.9809999999999999 Q 2.3982048339843756 0.9809999999999999 2.3982048339843756 0.9719999999999999 Q 2.3982048339843756 0.9629999999999999 2.4012048339843752 0.9629999999999999 Q 2.4597048339843752 0.9629999999999999 2.4874548339843754 0.9554999999999999 Q 2.5152048339843756 0.9479999999999998 2.5249548339843755 0.9262499999999999 Q 2.5347048339843754 0.9044999999999999 2.5347048339843754 0.8594999999999999 L 2.5347048339843754 0.1649999999999998 Q 2.5347048339843754 0.1259999999999999 2.5272048339843756 0.10799999999999987 Q 2.5197048339843753 0.08999999999999986 2.5002048339843754 0.0824999999999999 Q 2.480704833984375 0.07499999999999984 2.4402048339843754 0.07499999999999984 Q 2.3487048339843755 0.07499999999999984 2.2894548339843754 0.13124999999999987 Z M 3.4780883789062504 0.40949999999999986 Q 3.5095883789062503 0.43199999999999983 3.5095883789062503 0.4634999999999999 Q 3.5095883789062503 0.4919999999999999 3.4923383789062505 0.5099999999999998 Q 3.4750883789062503 0.5279999999999998 3.4450883789062505 0.5279999999999998 Q 3.4255883789062507 0.5279999999999998 3.4128383789062506 0.5197499999999999 Q 3.4000883789062506 0.5114999999999998 3.3865883789062505 0.4964999999999999 Q 3.3730883789062505 0.4829999999999999 3.3625883789062505 0.47624999999999984 Q 3.3520883789062506 0.4694999999999998 3.3370883789062504 0.4694999999999998 Q 3.3205883789062507 0.4694999999999998 3.3018383789062504 0.48224999999999985 Q 3.2830883789062506 0.4949999999999999 3.2440883789062505 0.5354999999999999 L 3.2440883789062505 0.8594999999999999 Q 3.2440883789062505 0.9014999999999999 3.2560883789062505 0.9232499999999999 Q 3.2680883789062505 0.9449999999999998 3.2965883789062507 0.9539999999999998 Q 3.3250883789062504 0.9629999999999999 3.3805883789062507 0.9629999999999999 Q 3.3865883789062505 0.9629999999999999 3.3865883789062505 0.9719999999999999 Q 3.3865883789062505 0.9809999999999999 3.3805883789062507 0.9809999999999999 Q 3.3310883789062506 0.9809999999999999 3.3010883789062504 0.9794999999999999 L 3.1825883789062503 0.9779999999999999 L 3.0955883789062506 0.9794999999999999 Q 3.0745883789062507 0.9809999999999999 3.0370883789062506 0.9809999999999999 Q 3.0325883789062504 0.9809999999999999 3.0325883789062504 0.9719999999999999 Q 3.0325883789062504 0.9629999999999999 3.0370883789062506 0.9629999999999999 Q 3.0880883789062503 0.9629999999999999 3.1045883789062505 0.9419999999999998 Q 3.1210883789062507 0.9209999999999998 3.1210883789062507 0.8594999999999999 L 3.1210883789062507 0.5729999999999998 Q 3.1210883789062507 0.5249999999999999 3.1098383789062507 0.5024999999999998 Q 3.0985883789062507 0.47999999999999987 3.0730883789062506 0.47999999999999987 Q 3.0505883789062507 0.47999999999999987 2.9980883789062505 0.5024999999999998 L 2.9965883789062504 0.5024999999999998 Q 2.9905883789062506 0.5024999999999998 2.9875883789062505 0.4949999999999999 Q 2.9845883789062504 0.4874999999999999 2.9890883789062506 0.4859999999999999 L 3.1855883789062505 0.3899999999999999 Q 3.1945883789062504 0.3869999999999999 3.1960883789062504 0.3869999999999999 Q 3.2110883789062505 0.3869999999999999 3.2260883789062507 0.4192499999999999 Q 3.2410883789062503 0.4514999999999999 3.2440883789062505 0.5039999999999998 Q 3.3025883789062505 0.43799999999999983 3.3415883789062506 0.41249999999999987 Q 3.3805883789062507 0.3869999999999999 3.4120883789062506 0.3869999999999999 Q 3.4465883789062506 0.3869999999999999 3.4780883789062504 0.40949999999999986 Z M 4.294031982421875 0.8864999999999998 Q 4.298531982421875 0.8864999999999998 4.301531982421875 0.8939999999999999 Q 4.304531982421875 0.9014999999999999 4.300031982421875 0.9044999999999999 L 4.103531982421876 0.9989999999999999 L 4.097531982421875 1.0005 Q 4.082531982421875 1.0005 4.070531982421875 0.9667499999999999 Q 4.058531982421875 0.9329999999999998 4.057031982421876 0.8759999999999999 Q 3.9520319824218753 0.9974999999999998 3.8350319824218753 0.9974999999999998 Q 3.7540319824218753 0.9974999999999998 3.7090319824218754 0.9472499999999999 Q 3.664031982421875 0.8969999999999999 3.664031982421875 0.8099999999999998 L 3.664031982421875 0.5864999999999998 Q 3.664031982421875 0.4844999999999999 3.617531982421875 0.4844999999999999 Q 3.6025319824218753 0.4844999999999999 3.575531982421875 0.4964999999999999 L 3.574031982421875 0.4964999999999999 Q 3.5680319824218754 0.4964999999999999 3.5650319824218752 0.4889999999999999 Q 3.562031982421875 0.4814999999999999 3.5665319824218753 0.4784999999999998 L 3.757031982421875 0.3899999999999999 L 3.763031982421875 0.38849999999999985 Q 3.769031982421875 0.38849999999999985 3.7765319824218753 0.39449999999999985 Q 3.784031982421875 0.40049999999999986 3.784031982421875 0.4049999999999998 L 3.784031982421875 0.7454999999999998 Q 3.784031982421875 0.9119999999999999 3.910031982421875 0.9119999999999999 Q 3.947531982421875 0.9119999999999999 3.9865319824218752 0.8939999999999999 Q 4.025531982421875 0.8759999999999999 4.057031982421876 0.8444999999999998 L 4.057031982421876 0.5864999999999998 Q 4.057031982421876 0.5339999999999998 4.045781982421875 0.5092499999999999 Q 4.034531982421875 0.4844999999999999 4.010531982421875 0.4844999999999999 Q 3.997031982421875 0.4844999999999999 3.968531982421875 0.4964999999999999 L 3.9670319824218754 0.4964999999999999 Q 3.961031982421875 0.4964999999999999 3.958031982421875 0.48824999999999985 Q 3.9550319824218754 0.47999999999999987 3.961031982421875 0.4784999999999998 L 4.150031982421876 0.3899999999999999 Q 4.153031982421875 0.38849999999999985 4.157531982421875 0.38849999999999985 Q 4.163531982421875 0.38849999999999985 4.171031982421876 0.39449999999999985 Q 4.178531982421875 0.40049999999999986 4.178531982421875 0.4049999999999998 L 4.178531982421875 0.8114999999999999 Q 4.178531982421875 0.8639999999999999 4.189031982421875 0.8849999999999999 Q 4.199531982421875 0.9059999999999999 4.223531982421875 0.9059999999999999 Q 4.241531982421876 0.9059999999999999 4.291031982421876 0.8879999999999999 L 4.294031982421875 0.8864999999999998 Z M 4.511496826171875 0.9577499999999999 Q 4.442496826171875 0.9149999999999998 4.404996826171875 0.8422499999999998 Q 4.367496826171875 0.7694999999999999 4.367496826171875 0.6839999999999999 Q 4.367496826171875 0.5864999999999998 4.416246826171875 0.5182499999999999 Q 4.464996826171875 0.44999999999999984 4.540746826171874 0.4162499999999999 Q 4.616496826171875 0.38249999999999984 4.695996826171875 0.38249999999999984 Q 4.787496826171875 0.38249999999999984 4.855746826171875 0.4259999999999998 Q 4.923996826171875 0.4694999999999998 4.959996826171875 0.5407499999999998 Q 4.995996826171875 0.6119999999999999 4.995996826171875 0.6929999999999998 Q 4.995996826171875 0.7829999999999999 4.951746826171875 0.8534999999999999 Q 4.907496826171875 0.9239999999999998 4.832496826171875 0.9622499999999998 Q 4.757496826171875 1.0005 4.670496826171875 1.0005 Q 4.580496826171875 1.0005 4.511496826171875 0.9577499999999999 Z M 4.816746826171875 0.9119999999999999 Q 4.851996826171875 0.8534999999999999 4.851996826171875 0.7409999999999999 Q 4.851996826171875 0.6404999999999998 4.8242468261718745 0.5654999999999999 Q 4.796496826171875 0.4904999999999999 4.749246826171875 0.4514999999999999 Q 4.701996826171875 0.41249999999999987 4.646496826171875 0.41249999999999987 Q 4.578996826171875 0.41249999999999987 4.544496826171875 0.46799999999999986 Q 4.509996826171875 0.5234999999999999 4.509996826171875 0.6314999999999998 Q 4.509996826171875 0.7289999999999999 4.536246826171875 0.8062499999999999 Q 4.562496826171875 0.8834999999999998 4.609746826171875 0.9269999999999998 Q 4.656996826171875 0.9704999999999999 4.715496826171875 0.9704999999999999 Q 4.781496826171875 0.9704999999999999 4.816746826171875 0.9119999999999999 Z M 5.822439697265625 0.9719999999999999 Q 5.822439697265625 0.9809999999999999 5.817939697265625 0.9809999999999999 Q 5.780439697265624 0.9809999999999999 5.759439697265624 0.9794999999999999 L 5.672439697265625 0.9779999999999999 L 5.586939697265625 0.9794999999999999 Q 5.564439697265625 0.9809999999999999 5.526939697265624 0.9809999999999999 Q 5.522439697265624 0.9809999999999999 5.522439697265624 0.9719999999999999 Q 5.522439697265624 0.9629999999999999 5.526939697265624 0.9629999999999999 Q 5.5779396972656246 0.9629999999999999 5.594439697265624 0.9419999999999998 Q 5.610939697265625 0.9209999999999998 5.610939697265625 0.8594999999999999 L 5.610939697265625 0.6344999999999998 Q 5.610939697265625 0.5504999999999999 5.580189697265625 0.5107499999999998 Q 5.549439697265624 0.47099999999999986 5.4834396972656245 0.47099999999999986 Q 5.444439697265625 0.47099999999999986 5.403939697265624 0.4889999999999999 Q 5.363439697265624 0.5069999999999999 5.330439697265625 0.5369999999999999 L 5.330439697265625 0.8594999999999999 Q 5.330439697265625 0.9209999999999998 5.346939697265625 0.9419999999999998 Q 5.363439697265624 0.9629999999999999 5.414439697265625 0.9629999999999999 Q 5.418939697265625 0.9629999999999999 5.418939697265625 0.9719999999999999 Q 5.418939697265625 0.9809999999999999 5.414439697265625 0.9809999999999999 Q 5.376939697265625 0.9809999999999999 5.355939697265624 0.9794999999999999 L 5.268939697265624 0.9779999999999999 L 5.181939697265625 0.9794999999999999 Q 5.160939697265625 0.9809999999999999 5.123439697265624 0.9809999999999999 Q 5.118939697265625 0.9809999999999999 5.118939697265625 0.9719999999999999 Q 5.118939697265625 0.9629999999999999 5.123439697265624 0.9629999999999999 Q 5.174439697265624 0.9629999999999999 5.190939697265625 0.9419999999999998 Q 5.207439697265625 0.9209999999999998 5.207439697265625 0.8594999999999999 L 5.207439697265625 0.5729999999999998 Q 5.207439697265625 0.5249999999999999 5.196189697265624 0.5024999999999998 Q 5.184939697265625 0.47999999999999987 5.159439697265625 0.47999999999999987 Q 5.136939697265625 0.47999999999999987 5.0844396972656245 0.5024999999999998 L 5.0829396972656244 0.5024999999999998 Q 5.076939697265624 0.5024999999999998 5.073939697265624 0.4949999999999999 Q 5.070939697265625 0.4874999999999999 5.075439697265624 0.4859999999999999 L 5.2719396972656245 0.3899999999999999 Q 5.280939697265625 0.3869999999999999 5.282439697265625 0.3869999999999999 Q 5.297439697265625 0.3869999999999999 5.313189697265624 0.42074999999999985 Q 5.328939697265625 0.4544999999999999 5.330439697265625 0.5084999999999998 Q 5.4354396972656245 0.3839999999999999 5.558439697265625 0.3839999999999999 Q 5.640939697265624 0.3839999999999999 5.687439697265624 0.4342499999999999 Q 5.733939697265624 0.4844999999999999 5.733939697265624 0.5699999999999998 L 5.733939697265624 0.8594999999999999 Q 5.733939697265624 0.9209999999999998 5.750439697265625 0.9419999999999998 Q 5.766939697265625 0.9629999999999999 5.817939697265625 0.9629999999999999 Q 5.822439697265625 0.9629999999999999 5.822439697265625 0.9719999999999999 Z M 6.461363525390624 0.3839999999999999 Q 6.464363525390624 0.3839999999999999 6.468113525390624 0.38624999999999987 Q 6.471863525390624 0.38849999999999985 6.471863525390624 0.39149999999999985 L 6.471863525390624 1.0859999999999999 Q 6.471863525390624 1.2285 6.390113525390625 1.3155 Q 6.308363525390624 1.4024999999999999 6.159863525390624 1.4024999999999999 Q 6.063863525390624 1.4024999999999999 6.002363525390624 1.3717499999999998 Q 5.940863525390625 1.3409999999999997 5.940863525390625 1.2885 Q 5.940863525390625 1.254 5.960363525390624 1.2374999999999998 Q 5.979863525390624 1.2209999999999999 6.006863525390624 1.2209999999999999 Q 6.042863525390624 1.2209999999999999 6.061613525390624 1.2382499999999999 Q 6.0803635253906245 1.2554999999999998 6.098363525390624 1.2899999999999998 Q 6.120863525390624 1.3304999999999998 6.145613525390624 1.35075 Q 6.170363525390624 1.371 6.2198635253906245 1.371 Q 6.279863525390624 1.371 6.3151135253906245 1.317 Q 6.350363525390624 1.263 6.350363525390624 1.1219999999999999 L 6.350363525390624 0.8924999999999998 Q 6.299363525390624 0.9419999999999998 6.247613525390625 0.9704999999999999 Q 6.1958635253906245 0.9989999999999999 6.132863525390624 0.9989999999999999 Q 6.072863525390624 0.9989999999999999 6.021863525390624 0.9682499999999998 Q 5.970863525390624 0.9374999999999999 5.940863525390625 0.8782499999999999 Q 5.910863525390624 0.8189999999999998 5.910863525390624 0.7364999999999999 Q 5.910863525390624 0.6299999999999999 5.9611135253906244 0.5497499999999998 Q 6.011363525390625 0.4694999999999998 6.091613525390624 0.42674999999999985 Q 6.171863525390624 0.3839999999999999 6.258863525390624 0.3839999999999999 Q 6.342863525390624 0.3839999999999999 6.404363525390624 0.4244999999999999 Q 6.435863525390625 0.40949999999999986 6.456863525390625 0.38549999999999984 Q 6.458363525390624 0.3839999999999999 6.461363525390624 0.3839999999999999 Z M 6.350363525390624 0.8654999999999998 L 6.350363525390624 0.5459999999999998 Q 6.350363525390624 0.4889999999999999 6.3128635253906245 0.4514999999999999 Q 6.275363525390624 0.4139999999999998 6.2198635253906245 0.4139999999999998 Q 6.141863525390624 0.4139999999999998 6.094613525390624 0.4904999999999999 Q 6.047363525390624 0.5669999999999998 6.047363525390624 0.6884999999999999 Q 6.047363525390624 0.8009999999999999 6.088613525390624 0.8654999999999998 Q 6.129863525390625 0.9299999999999998 6.201863525390625 0.9299999999999998 Q 6.2678635253906245 0.9299999999999998 6.350363525390624 0.8654999999999998 Z" fill="#212121" fill-rule="nonzero"></path></g><g></g><g clip-path="url(&quot;#SvgjsClipPath1022&quot;)"><path d=" M 6.975546928892025 0.11254353793900948 C 6.950421292467452 0.06909795543468025 6.965218092470094 0.013512092990887785 7.008618119322355 -0.011692150979186508 C 7.052011018283922 -0.036802236004264646 7.107542972489711 -0.02199893650511972 7.13267882839701 0.02137903945115016 L 7.377650609362466 0.4450052406778436 C 7.3943800199059435 0.4734670958588403 7.3943800199059435 0.5087577630459866 7.377650609362466 0.5372196182269834 L 7.133553727614744 0.9596209605488496 C 7.108427665843893 1.0031083751522427 7.052805453299938 1.0179931925935826 7.009318038696547 0.9928671308227336 C 6.965830624093149 0.9677410690518843 6.950945806651812 0.9121188565079302 6.976071868422657 0.8686314419045371 L 7.194271733325469 0.49049999999999994 Z" fill="#44c2f4" transform="matrix(1,0,0,1,0,0)" fill-rule="evenodd"></path><path d=" M 7.294360203834214 0.11254353793900948 C 7.28223138317076 0.09171039248060948 7.278883364218855 0.06690970790081194 7.285053868474635 0.043606207785885615 C 7.291224372730422 0.02030270767095929 7.306407032519471 0.00040873802538710785 7.327256414421002 -0.011692150979186508 C 7.370701996925333 -0.03681778740375749 7.426287859369126 -0.02202098740111403 7.451492103339205 0.02137903945115016 L 7.696463884304655 0.4450052406778436 C 7.713193294848132 0.4734670958588403 7.713193294848132 0.5087577630459866 7.696463884304655 0.5372196182269834 L 7.4514921033391985 0.9596209605488496 C 7.426366041568348 1.0031083751522427 7.370743829024393 1.0179931925935826 7.327256414421002 0.9928671308227336 C 7.283768999817604 0.9677410690518843 7.268884182376267 0.9121188565079302 7.2940102441471115 0.8686314419045371 L 7.512210109049924 0.49049999999999994 Z" fill="#0f80c7" transform="matrix(1,0,0,1,0,0)" fill-rule="evenodd"></path><path d=" M 7.612998498932854 0.11254353793900948 C 7.587872862508284 0.06909795543468025 7.602669662510926 0.013512092990887785 7.64606968936319 -0.011692150979186508 C 7.689462588324751 -0.036802236004264646 7.74499454253054 -0.02199893650511972 7.770130398437839 0.02137903945115016 L 8.015102179403298 0.4450052406778436 C 8.031831589946773 0.4734670958588403 8.031831589946773 0.5087577630459866 8.015102179403298 0.5372196182269834 L 7.771005297655573 0.9596209605488496 C 7.745879235884728 1.0031083751522427 7.69025702334077 1.0179931925935826 7.646769608737379 0.9928671308227336 C 7.603282194133984 0.9677410690518843 7.588397376692647 0.9121188565079302 7.613523438463492 0.8686314419045371 L 7.831198363835655 0.49049999999999994 Z" fill="#004883" transform="matrix(1,0,0,1,0,0)" fill-rule="evenodd"></path></g></g><defs><clipPath id="SvgjsClipPath1022"><path d=" M 6.96329833984375 -0.023940740027459273 h 1.0637024689207226 v 1.0288814800549184 h -1.0637024689207226 Z"></path></clipPath></defs></svg>