<svg xmlns="http://www.w3.org/2000/svg" version="1.1" xmlns:xlink="http://www.w3.org/1999/xlink" xmlns:svgjs="http://svgjs.dev/svgjs" viewBox="0 0 2.1785771827501184 2.4897647202635222"><g transform="matrix(1,0,0,1,1.0824545340476541,2.4832696156640908)"><rect width="2.1785771827501184" height="2.4897647202635222" x="-1.0824545340476541" y="-2.4832696156640908" fill="#3361e1"></rect><g><path d=" M -0.6991006059059452 -2.1126769214304604 L -0.47068780224623413 -1.8934587854920528 L -0.46170930029440727 -2.211136903250738 L -0.26588456570434477 -2.2923568104332235 L -0.3102128867556874 -1.7597359321785602 L -0.22018138586944158 -1.5426660612886323 L -0.39937949205091383 -1.4683421839612634 L -0.4901772184766171 -1.6872594580077012 L -0.8940016389177528 -2.031840127017704 L -0.6991006059059452 -2.1126769214304604 Z M 0.8238317418711576 -1.867893391626394 L 0.6374956169502073 -1.9509286163773631 L 0.417696492609406 -1.457685932763083 L 0.23958107908202697 -1.5370578387750389 L 0.4593802034228282 -2.0303005223893194 L 0.2721306661248144 -2.1137427825557347 L 0.3413266867506222 -2.2690228866565265 L 0.8930277624969654 -2.023173495727186 L 0.8238317418711576 -1.867893391626394 Z" fill="#ffffff" fill-rule="nonzero"></path></g><g clip-path="url(&quot;#SvgjsClipPath1023&quot;)"><path d=" M 0.5227044927602055 -1.0001972195564706 C 0.5078358104875352 -1.0322231341780874 0.4947386865570419 -1.0508624094981156 0.4804869477537287 -1.0723968385290952 C 0.47788130941387286 -1.076325975708243 0.46582161556313706 -1.0945206381369468 0.46317806449611376 -1.0985497270513538 C 0.6340369393925195 -0.8381582236437839 0.5090524643684463 -0.42016006679053086 0.1980681498620055 -0.2523135303981383 C 0.19209402315686797 -0.24909669294152614 0.18605900631415928 -0.24599474253693554 0.17996309933387844 -0.24300767918436694 C 0.13596298014715458 -0.2211529171267781 0.08904183033378954 -0.2057559172721366 0.04064761344059753 -0.19729182344382412 C 0.013281724514901394 -0.1925766285348729 -0.014463801546110044 -0.19042007907932823 -0.04222960814693899 -0.19085010643695788 C -0.048334706091381685 -0.19096269574793912 -0.05442946420114225 -0.1911924698519829 -0.06051388247622036 -0.1915394287490888 C -0.002117942804023887 -0.18799286545317373 0.003937753708049496 -0.18730354314104258 0.02315950638182851 -0.1875723788427739 C 0.058061151803184496 -0.1881391245800763 0.09277133945762284 -0.19285739608856978 0.12655785320151247 -0.20162766078712946 C 0.45260041361646 -0.2848357570844895 0.6620027455956831 -0.7002455086556897 0.5227044927602055 -1.0001972195564706 Z" fill="#ffffff" transform="matrix(1,0,0,1,0,0)" fill-rule="nonzero"></path><path d=" M 0.4908991612784709 -0.943765848473848 C 0.48259046056740507 -0.9988725352108796 0.4648830960237248 -1.0521438514807766 0.4385485782836648 -1.1012587637380307 C 0.41860438192777494 -1.1382514872991583 0.39313393689098686 -1.1719854442780664 0.3630160859318864 -1.2012966642860734 C 0.3384341512827518 -1.2251497070155906 0.3107916846925267 -1.24563063058439 0.2808144002102372 -1.2622017371744279 C 0.26884996814366935 -1.268784821998653 0.2565468818772785 -1.2747327326024718 0.2439563361805802 -1.2800207189430202 C 0.23789719305694768 -1.2825781047210265 0.23939646908583312 -1.2819163553013806 0.18059382924947898 -1.304915594245639 C 0.2594971077075797 -1.2739822554887503 0.3236282090167082 -1.220001425225754 0.36976799797921156 -1.145733839316736 C 0.424296839480352 -1.0579624293130672 0.4455555395864791 -0.9507142173801307 0.4385485782836652 -0.8450169806494895 C 0.4154562808272688 -0.4956029472417326 0.0952212608920272 -0.1944311358484796 -0.21679359047105023 -0.25668038724548947 C -0.2650143203059467 -0.2663213988467119 -0.310918589811779 -0.2851868084029534 -0.35198348232622567 -0.3122397656032663 C -0.36188559733999104 -0.31878832756851283 -0.37067445681966416 -0.32520591829445467 -0.3805145328253373 -0.33306763926431127 C -0.3296046334628858 -0.2923562635098411 -0.3344333362593651 -0.2961888955652907 -0.33117628833454493 -0.2936590826797689 C -0.256336564906458 -0.2355767846595922 -0.16327115954562144 -0.20602553713852645 -0.059407520165249195 -0.21217429216273698 C -0.03170816308062041 -0.21391240881046047 -0.004215410108810658 -0.21808395371771083 0.02275280621767084 -0.22464068617763 C 0.32104669695777655 -0.2974641418427335 0.5389208001530926 -0.6324816787616298 0.4908991612784709 -0.943765848473848 Z" fill="#ffffff" transform="matrix(1,0,0,1,0,0)" fill-rule="nonzero"></path><path d=" M -0.2807868273177525 -1.0198325656175284 C -0.3368459643518244 -1.011319435062708 -0.3804249209247603 -0.9470194497871074 -0.36842381947055586 -0.8890922492871599 C -0.3585975299111252 -0.8416910004934562 -0.31485313598327763 -0.8181782164266602 -0.26943368883695135 -0.8354147208415014 C -0.2289739157264093 -0.8507418024517391 -0.19843349068743515 -0.894351778528721 -0.1976683429209697 -0.9403674894750409 C -0.19687562226201855 -0.991242922721886 -0.2335648023252032 -1.027004964275254 -0.2807868273177525 -1.0198325656175284 Z" fill="#ffffff" transform="matrix(1,0,0,1,0,0)" fill-rule="nonzero"></path><path d=" M 0.3252894757889444 -1.1141801104789293 C 0.24782688096319783 -1.2810547024112167 0.0782398057326743 -1.364852169285449 -0.10788755837743846 -1.3250196794789462 C -0.1303456793066734 -1.3202254427980735 -0.14137138968921265 -1.316541015039732 -0.18669088510028004 -1.3028924332595337 C -0.13992043712879493 -1.317263452621659 -0.0909130789928343 -1.3229453297215876 -0.04209519029607378 -1.319656751890565 C -0.007589375043246971 -1.3171853148389374 0.02636088283018878 -1.3096219718376096 0.058652712233465576 -1.2972124174075725 C 0.2730319513062759 -1.2130909690466385 0.34872298778984534 -0.9384615132819982 0.23167261257840277 -0.6876481434014916 C 0.17968047718590474 -0.5761985119761154 0.09165746453830836 -0.4774910034904847 -0.020822703743704207 -0.4189296264633765 C -0.13488486673205785 -0.35956174233107485 -0.2696232524727876 -0.3483774878167458 -0.3813210399305312 -0.40746964302419497 C -0.40015671274799175 -0.4173563072204659 -0.4179910855715444 -0.4290431252153186 -0.434574635154229 -0.44236658507583837 C -0.49372193614664883 -0.4895851634568271 -0.5410197865935328 -0.5613539559843694 -0.5623818850464793 -0.6521480443267337 C -0.5521213224304061 -0.6083381647792336 -0.5508770956570092 -0.602561643803574 -0.5475924748397037 -0.5908466111089039 C -0.49619660324719994 -0.4074213904623457 -0.3455589983771634 -0.2937693742497103 -0.1616478055005528 -0.30189993092129797 C 0.011640930546115591 -0.30948247635474146 0.17017127589005476 -0.4219074988517836 0.2651702303364192 -0.5686021800964294 C 0.27321117510743 -0.5810272147725947 0.2801560974021521 -0.5925699168892321 0.2871010196968742 -0.6049018930532597 C 0.37326286210171666 -0.7579865921313618 0.3998672567384217 -0.9535232058020655 0.3252894757889444 -1.1141801104789293 Z" fill="#ffffff" transform="matrix(1,0,0,1,0,0)" fill-rule="nonzero"></path><path d=" M -0.00821155204326307 -1.0164445464534035 C -0.011315381855286577 -1.0296779269622724 -0.015521135217371418 -1.0426283731016102 -0.020784791016537074 -1.055160334114254 C -0.07187046756858179 -1.1762777109672706 -0.2058161326503608 -1.2145350992905535 -0.32730919016348875 -1.1477604469144018 C -0.43472973267445797 -1.0886924179878772 -0.5057092511546104 -0.9619880837950369 -0.49781995729226836 -0.8389061383524462 C -0.48730434542070666 -0.6756815080628936 -0.3434117593748741 -0.5864866474846738 -0.1943837221036639 -0.6521928502770221 C -0.06069655288893483 -0.7111161215179992 0.025017230013022362 -0.873696235445709 -0.00821155204326307 -1.0164445464534035 Z M -0.2591765728324386 -0.7352803151697592 C -0.31705207415897596 -0.7197705631468067 -0.370815767893651 -0.7373896414448807 -0.40422032713953016 -0.7769843150536982 C -0.4755651864451118 -0.8615124635787896 -0.43866231646516674 -1.0116434165494097 -0.3344953752674568 -1.0773151532261513 C -0.24919863236433915 -1.1310822935723868 -0.1520248660232006 -1.1066113514917284 -0.11512199604325518 -1.0219384452810893 C -0.10721215352302316 -1.0034232939777425 -0.10254857540252876 -0.9836846995827486 -0.10133554980063064 -0.9635873115591813 C -0.09472150221573189 -0.8614021720088486 -0.16645238201610707 -0.7601303845220898 -0.2591869126671207 -0.7352803151697592 Z" fill="#ffffff" transform="matrix(1,0,0,1,0,0)" fill-rule="nonzero"></path><path d=" M 0.18258941734309897 -1.0468953595918005 C 0.12827426575871914 -1.254109093230007 -0.07475183483329012 -1.3468608569388238 -0.27778827525998173 -1.2528407401756856 C -0.5100898944482042 -1.1452857798138507 -0.6341679106318245 -0.8394472563674691 -0.5283017899347111 -0.6217179108577007 C -0.453462066506624 -0.4678163648397229 -0.2804904187235361 -0.40251341559997134 -0.10305885558095895 -0.47912814398179626 C -0.0023557590017083685 -0.5225795759269879 0.08218617596962552 -0.6063425766856136 0.13401632061877244 -0.7035266828614343 C 0.19727542920305474 -0.8221073536058082 0.20874919908847878 -0.9471400811917303 0.18258941734309897 -1.0468953595918005 Z M 0.09879195046886657 -0.9468298861512713 C 0.09637932237640723 -0.7402847951558319 -0.06546666328888295 -0.5552569001335687 -0.24799576492967035 -0.5368278681187404 C -0.26137150770131573 -0.5354745048526024 -0.27482668713406044 -0.5350759864410521 -0.28825908118125537 -0.5356353405187533 C -0.4437288354593316 -0.54265608826781 -0.5522419538350288 -0.6768533559935166 -0.5395170639530865 -0.8555877383060218 C -0.5276503803497476 -1.0229758753608469 -0.40764281241926215 -1.1828710788828056 -0.2517249986383005 -1.2292900433817222 C -0.06501515717443651 -1.2848218488470138 0.10020506120873562 -1.1570766379628552 0.09879195046886657 -0.9468298861512713 Z" fill="#ffffff" transform="matrix(1,0,0,1,0,0)" fill-rule="nonzero"></path></g></g><defs><clipPath id="SvgjsClipPath1023"><path d=" M -0.566500585861463 -1.334821842757452 h 1.133001171722926 v 1.147321842757452 h -1.133001171722926 Z"></path></clipPath></defs></svg>